<svg width="504" height="512" viewBox="0 0 504 512" fill="none" xmlns="http://www.w3.org/2000/svg">
<path d="M501.418 34.829C500.13 33.3 498.287 32.345 496.295 32.175L384.867 22.658L382.847 6.6C382.327 2.469 378.548 -0.459001 374.427 0.0599989L271.06 13.056C270.653 12.95 270.236 12.87 269.802 12.833L127.726 0.696999C123.635 0.336999 119.921 3.483 119.573 7.566L117.455 32.366L7.40605 46.202C3.33405 46.714 0.355053 50.547 0.866053 54.622L57.0401 501.43C57.2951 503.468 56.8581 505.426 57.6911 507.397C58.8591 510.158 61.6391 512.001 64.6381 512.001H434.547C438.712 512.001 442.086 508.627 442.086 504.462V494.643L456.687 495.89C460.778 496.245 464.492 493.106 464.84 489.021L503.163 40.33C503.334 38.337 502.707 36.359 501.418 34.829ZM57.0991 381.023L16.7681 60.221L57.0991 55.151V381.023V381.023ZM133.955 16.362L199.935 21.997L132.753 30.444L133.955 16.362ZM368.828 15.961L372.68 46.598H125.129L368.828 15.961ZM450.459 480.225L442.086 479.51V259.195C442.086 255.031 438.712 251.656 434.547 251.656C430.382 251.656 427.008 255.03 427.008 259.195V496.922H72.1771V61.676H427.009V224.014C427.009 228.179 430.383 231.553 434.548 231.553C438.713 231.553 442.087 228.179 442.087 224.014V54.137C442.087 49.973 438.713 46.598 434.548 46.598H387.877L386.79 37.955L487.499 46.557L450.459 480.225Z" fill="white"/>
<path d="M394.34 86.806H354.132C351.611 86.806 349.257 88.065 347.86 90.163L330.796 115.759C312.429 102.602 289.942 94.847 265.676 94.847C261.512 94.847 258.137 98.221 258.137 102.386V206.926C258.137 211.09 261.511 214.465 265.676 214.465H370.216C374.381 214.465 377.755 211.091 377.755 206.926C377.755 174.829 364.189 145.845 342.495 125.393L358.168 101.884H394.341C398.505 101.884 401.88 98.51 401.88 94.345C401.88 90.18 398.504 86.806 394.34 86.806ZM362.387 199.387H273.215V110.215C291.498 111.627 308.365 118.147 322.421 128.322L315.694 138.413C313.593 141.563 314.209 145.926 317.111 148.363C320.509 151.217 325.78 150.464 328.239 146.777L333.996 138.141C350.025 154.063 360.543 175.527 362.387 199.387Z" fill="white"/>
<path d="M394.34 336.092H326.145L314.129 316.867C333.594 296.697 345.588 269.269 345.588 239.092C345.588 234.927 342.214 231.553 338.049 231.553H241.048V134.552C241.048 130.388 237.673 127.013 233.509 127.013C171.709 127.013 121.43 177.292 121.43 239.092C121.43 300.892 171.709 351.171 233.509 351.171C259.632 351.171 283.694 342.187 302.773 327.148L315.573 347.628C316.951 349.832 319.367 351.171 321.966 351.171H394.34C398.504 351.171 401.879 347.797 401.879 343.632C401.879 339.467 398.504 336.092 394.34 336.092ZM288.153 275.304C285.947 271.771 281.294 270.699 277.764 272.906C274.233 275.112 273.159 279.764 275.366 283.295L294.73 314.277C278.021 327.908 256.704 336.094 233.51 336.094C180.024 336.094 136.509 292.579 136.509 239.093C136.509 188.143 175.994 146.242 225.971 142.382V239.093C225.971 243.257 229.346 246.632 233.51 246.632H330.221C328.537 268.433 319.613 288.236 305.859 303.636L288.153 275.304Z" fill="white"/>
<path d="M169.177 376.3H104.845C100.682 376.3 97.3062 379.674 97.3062 383.839C97.3062 388.004 100.681 391.378 104.845 391.378H169.177C173.341 391.378 176.716 388.004 176.716 383.839C176.716 379.674 173.341 376.3 169.177 376.3Z" fill="white"/>
<path d="M265.676 376.3H201.344C197.18 376.3 193.805 379.674 193.805 383.839C193.805 388.004 197.18 391.378 201.344 391.378H265.676C269.84 391.378 273.215 388.004 273.215 383.839C273.215 379.674 269.84 376.3 265.676 376.3Z" fill="white"/>
<path d="M209.385 416.508H104.845C100.682 416.508 97.3062 419.882 97.3062 424.047C97.3062 428.212 100.681 431.586 104.845 431.586H209.385C213.549 431.586 216.924 428.212 216.924 424.047C216.924 419.882 213.548 416.508 209.385 416.508Z" fill="white"/>
<path d="M265.676 416.508H241.551C237.388 416.508 234.012 419.882 234.012 424.047C234.012 428.212 237.387 431.586 241.551 431.586H265.676C269.84 431.586 273.215 428.212 273.215 424.047C273.214 419.882 269.84 416.508 265.676 416.508Z" fill="white"/>
<path d="M137.011 456.715H104.845C100.682 456.715 97.3062 460.089 97.3062 464.254C97.3062 468.419 100.681 471.793 104.845 471.793H137.011C141.175 471.793 144.55 468.419 144.55 464.254C144.55 460.089 141.175 456.715 137.011 456.715Z" fill="white"/>
<path d="M265.676 456.715H169.178C165.015 456.715 161.639 460.089 161.639 464.254C161.639 468.419 165.014 471.793 169.178 471.793H265.676C269.84 471.793 273.215 468.419 273.215 464.254C273.215 460.089 269.84 456.715 265.676 456.715Z" fill="white"/>
</svg>
