<svg width="512" height="512" viewBox="0 0 512 512" fill="none" xmlns="http://www.w3.org/2000/svg">
<path d="M502 208.749H438C432.477 208.749 428 213.227 428 218.749V269.249C428 274.771 432.477 279.249 438 279.249C443.523 279.249 448 274.771 448 269.249V228.749H492V492H470H448V344.249C448 338.727 443.523 334.249 438 334.249C432.477 334.249 428 338.727 428 344.249V492H408V285C408 279.478 403.523 275 398 275H334C328.477 275 324 279.478 324 285V492H304V355C304 349.478 299.523 345 294 345H230C224.477 345 220 349.478 220 355V492H200V412.375C200 406.853 195.523 402.375 190 402.375H126C120.477 402.375 116 406.853 116 412.375V492H30C24.486 492 20 487.514 20 482V30C20 24.486 24.486 20 30 20H287.975V86.003C287.975 102.545 301.433 116.003 317.975 116.003H383.975V239C383.975 244.522 388.452 249 393.975 249C399.498 249 403.975 244.522 403.975 239V106.003C403.975 103.351 402.921 100.808 401.046 98.932L305.046 2.929C303.17 1.054 300.627 0 297.975 0H30C13.458 0 0 13.458 0 30V482C0 498.542 13.458 512 30 512H502C507.523 512 512 507.522 512 502V218.749C512 213.227 507.523 208.749 502 208.749ZM307.975 34.143L369.834 96.003H317.975C312.46 96.003 307.975 91.517 307.975 86.003V34.143ZM180 492H136V422.375H180V492ZM284 492H240V365H284V492ZM388 492H344V295H388V492Z" fill="white"/>
<path d="M445.07 297.82C443.21 295.951 440.63 294.89 438 294.89C435.37 294.89 432.79 295.951 430.93 297.82C429.07 299.68 428 302.26 428 304.89C428 307.52 429.07 310.1 430.93 311.96C432.79 313.819 435.37 314.89 438 314.89C440.63 314.89 443.21 313.82 445.07 311.96C446.93 310.1 448 307.52 448 304.89C448 302.26 446.93 299.68 445.07 297.82Z" fill="white"/>
<path d="M145.577 54.729C140.054 54.729 135.577 59.207 135.577 64.729V82.718C89.546 87.715 53.6021 126.815 53.6021 174.153C53.6021 224.868 94.862 266.128 145.577 266.128C192.915 266.128 232.015 230.185 237.012 184.153H255C260.523 184.153 265 179.675 265 174.153C265 108.302 211.427 54.729 145.577 54.729ZM145.577 246.127C105.89 246.127 73.602 213.839 73.602 174.152C73.602 137.859 100.607 107.753 135.577 102.87V174.152C135.577 179.674 140.054 184.152 145.577 184.152H216.859C211.976 219.122 181.87 246.127 145.577 246.127ZM155.577 164.153V164.152V75.228C202.429 79.93 239.799 117.301 244.501 164.153H155.577Z" fill="white"/>
<path d="M255 294.25H64C58.477 294.25 54 298.728 54 304.25C54 309.772 58.477 314.25 64 314.25H255C260.523 314.25 265 309.772 265 304.25C265 298.728 260.523 294.25 255 294.25Z" fill="white"/>
<path d="M128 342.5H64C58.477 342.5 54 346.978 54 352.5C54 358.022 58.477 362.5 64 362.5H128C133.523 362.5 138 358.022 138 352.5C138 346.978 133.523 342.5 128 342.5Z" fill="white"/>
<path d="M185.15 345.43C183.29 343.57 180.71 342.5 178.08 342.5C175.44 342.5 172.87 343.569 171.01 345.43C169.14 347.29 168.08 349.87 168.08 352.5C168.08 355.13 169.14 357.71 171.01 359.569C172.87 361.429 175.44 362.5 178.08 362.5C180.71 362.5 183.29 361.43 185.15 359.569C187.01 357.71 188.08 355.13 188.08 352.5C188.08 349.87 187.01 347.29 185.15 345.43Z" fill="white"/>
</svg>
