<svg width="43" height="43" viewBox="0 0 43 43" fill="none" xmlns="http://www.w3.org/2000/svg">
<circle cx="21.5" cy="21.5" r="20.5" fill="#FF8A5C" stroke="white" stroke-width="2"/>
<path d="M24.9918 11.2092L15.21 20.9917C15.0701 21.1315 15 21.2923 15 21.4742C15 21.6561 15.0701 21.8172 15.21 21.957L24.9918 31.7387C25.132 31.8789 25.2928 31.9487 25.4747 31.9487C25.6566 31.9487 25.8176 31.8786 25.9575 31.7387L27.0067 30.6894C27.1466 30.5495 27.2166 30.3885 27.2166 30.2066C27.2166 30.0247 27.1466 29.8637 27.0067 29.7238L18.7573 21.4742L27.0072 13.2243C27.1471 13.0845 27.2166 12.9234 27.2166 12.7418C27.2166 12.5596 27.1467 12.3986 27.0072 12.2588L25.9575 11.2093C25.8177 11.0695 25.6566 11 25.4748 11C25.2928 10.9999 25.1317 11.0694 24.9918 11.2092Z" fill="white"/>
</svg>
