<svg width="31" height="31" viewBox="0 0 31 31" fill="none" xmlns="http://www.w3.org/2000/svg">
<path d="M0.851913 5.88203C1.42664 5.22548 2.24591 4.86385 3.15861 4.86385H25.2237L25.4458 3.19881C25.6851 1.40511 26.9339 0 28.2889 0H29.9102C30.4118 0 30.8184 0.406563 30.8184 0.908203C30.8184 1.40984 30.4118 1.81641 29.9102 1.81641H28.2889C27.9975 1.81641 27.3804 2.43252 27.2463 3.43887L24.6466 22.9373C24.5321 23.7968 24.0906 24.6014 23.4033 25.2031C22.8936 25.6494 22.2912 25.9462 21.6602 26.0704C21.9173 26.5432 22.0634 27.0848 22.0634 27.6598C22.0634 29.5017 20.5649 31 18.7232 31C16.8815 31 15.3829 29.5017 15.3829 27.6598C15.3829 27.111 15.5168 26.5933 15.7524 26.1361H10.9933C11.2288 26.5933 11.3627 27.111 11.3627 27.6598C11.3627 29.5017 9.86417 31 8.02246 31C6.18075 31 4.68221 29.5017 4.68221 27.6598C4.68221 27.111 4.81608 26.5933 5.05164 26.1361H2.6721C2.1707 26.1361 1.7639 25.7293 1.7639 25.2279C1.7639 24.7263 2.1707 24.3197 2.6721 24.3197H20.993C21.8804 24.3197 22.729 23.5766 22.8463 22.697L23.0362 21.2721H15.9676C15.9673 21.2721 15.9671 21.2723 15.9669 21.2723C15.9666 21.2723 15.9664 21.2721 15.9659 21.2721H10.1312C10.131 21.2721 10.1307 21.2723 10.1302 21.2723C10.13 21.2723 10.13 21.2721 10.1298 21.2721H5.10415C4.2371 21.2721 3.38116 20.9407 2.69386 20.3393C2.00656 19.7376 1.56499 18.9327 1.45052 18.0732L0.14782 8.30296C0.0271988 7.39831 0.277191 6.53859 0.851913 5.88203V5.88203ZM17.1993 27.6598C17.1993 28.5001 17.8829 29.1836 18.7232 29.1836C19.5633 29.1836 20.247 28.5001 20.247 27.6598C20.247 26.8197 19.5633 26.1361 18.7232 26.1361C17.8829 26.1361 17.1993 26.8197 17.1993 27.6598V27.6598ZM6.49862 27.6598C6.49862 28.5001 7.18214 29.1836 8.02246 29.1836C8.86279 29.1836 9.5463 28.5001 9.5463 27.6598C9.5463 26.8197 8.86279 26.1361 8.02246 26.1361C7.18214 26.1361 6.49862 26.8197 6.49862 27.6598V27.6598ZM2.21871 7.07854C1.99379 7.3354 1.89777 7.68472 1.94838 8.06267L2.49448 12.1598H8.67405L8.30888 6.68026H3.15861C2.77711 6.68026 2.4434 6.82169 2.21871 7.07854V7.07854ZM15.1164 19.4557L15.4818 13.9762H10.6156L10.981 19.4557H15.1164ZM15.6029 12.1598L15.9681 6.68026H10.1293L10.4945 12.1598H15.6029ZM17.7885 6.68026L17.4233 12.1598H24.2512L24.9817 6.68026H17.7885ZM24.009 13.9762H17.3022L16.9368 19.4557H23.2784L24.009 13.9762ZM5.10415 19.4557H9.16055L8.79514 13.9762H2.73667L3.25085 17.8332C3.36816 18.7128 4.217 19.4557 5.10415 19.4557Z" fill="white"/>
</svg>
