<svg width="135" height="135" viewBox="0 0 135 135" fill="none" xmlns="http://www.w3.org/2000/svg">
<path d="M128.468 74.0323V45.7258C128.468 42.1244 125.537 39.1935 121.935 39.1935H117.581C115.902 39.1935 114.384 39.849 113.226 40.8919C112.067 39.8468 110.55 39.1935 108.871 39.1935H104.516C102.837 39.1935 101.32 39.849 100.161 40.8919C99.0029 39.8468 97.4852 39.1935 95.8065 39.1935H91.4516C87.8502 39.1935 84.9194 42.1244 84.9194 45.7258V73.6665C79.8961 70.1848 72.5647 67.2213 61.83 65.9671L65.2594 41.9589C65.3008 41.6693 65.3226 41.3753 65.3226 41.0814C65.3226 37.6389 62.5224 34.8387 59.0799 34.8387H39.1935V15.2419C39.1935 14.0422 40.1712 13.0645 41.371 13.0645H58.7903C62.3918 13.0645 65.3226 10.1337 65.3226 6.53226C65.3226 2.93081 62.3918 0 58.7903 0H39.1935C31.9885 0 26.129 5.85944 26.129 13.0645V34.8387H6.24266C2.80016 34.8387 0 37.6389 0 41.0814C0 41.3753 0.0217742 41.6693 0.0631452 41.9654L5.31073 78.6941C0.135 84.8584 0 90.9377 0 91.4516C0 95.249 2.45613 98.4498 5.85073 99.6409C4.9079 101.032 4.35484 102.711 4.35484 104.516C4.35484 106.837 5.28024 108.934 6.76524 110.498C2.73702 112.725 0 117.015 0 121.935C0 129.141 5.85944 135 13.0645 135H78.3871H82.7419H135V89.2742V87.0968V80.5645C135 76.9631 132.069 74.0323 128.468 74.0323ZM115.403 45.7258C115.403 44.526 116.381 43.5484 117.581 43.5484H121.935C123.135 43.5484 124.113 44.526 124.113 45.7258V74.0323H115.403V45.7258ZM102.339 45.7258C102.339 44.526 103.316 43.5484 104.516 43.5484H108.871C110.071 43.5484 111.048 44.526 111.048 45.7258V74.0323H102.339V45.7258ZM89.2742 45.7258C89.2742 44.526 90.2519 43.5484 91.4516 43.5484H95.8065C97.0062 43.5484 97.9839 44.526 97.9839 45.7258V74.0323H89.2742V45.7258ZM54.4355 4.35484H58.7903C59.9901 4.35484 60.9677 5.3325 60.9677 6.53226C60.9677 7.73202 59.9901 8.70968 58.7903 8.70968H54.4355V4.35484ZM45.7258 4.35484H50.0806V8.70968H45.7258V4.35484ZM30.4839 13.0645C30.4839 8.26113 34.3902 4.35484 39.1935 4.35484H41.371V8.70968C37.7695 8.70968 34.8387 11.6405 34.8387 15.2419V34.8387H30.4839V13.0645ZM4.68798 43.5484L4.37444 41.3557C4.36137 41.2643 4.35484 41.1728 4.35484 41.0814C4.35484 40.0406 5.20186 39.1935 6.24266 39.1935H26.129H39.1935H59.0799C60.1207 39.1935 60.9677 40.0406 60.9677 41.0814C60.9677 41.1728 60.9612 41.2643 60.9503 41.3492L60.6346 43.5484H54.4355V47.9032H60.0119L58.7685 56.6129H6.55403L5.31073 47.9032H50.0806V43.5484H4.68798ZM58.148 60.9677L57.4904 65.5752C55.1584 65.414 52.7023 65.3226 50.0806 65.3226H45.7258C26.7518 65.3226 15.6687 69.7406 9.17347 74.9446L7.17677 60.9677H58.148ZM4.35484 91.4516C4.35484 91.2339 4.82734 69.6774 45.7258 69.6774H50.0806C90.6961 69.6774 91.4407 90.5763 91.4516 91.4516C91.4516 93.8533 89.4985 95.8065 87.0968 95.8065H84.9194H82.7419H13.0645H8.70968C6.30798 95.8065 4.35484 93.8533 4.35484 91.4516ZM13.0645 108.871C10.6628 108.871 8.70968 106.918 8.70968 104.516C8.70968 102.114 10.6628 100.161 13.0645 100.161H82.7419C85.1436 100.161 87.0968 102.114 87.0968 104.516C87.0968 106.918 85.1436 108.871 82.7419 108.871H13.0645ZM73.6534 113.226L64.7194 123.649L40.8919 113.226H73.6534ZM82.7419 130.645H78.3871H13.0645C8.26113 130.645 4.35484 126.739 4.35484 121.935C4.35484 117.132 8.26113 113.226 13.0645 113.226H30.0288L65.9257 128.932L79.3887 113.226H82.7419C87.5453 113.226 91.4516 117.132 91.4516 121.935C91.4516 126.739 87.5453 130.645 82.7419 130.645ZM89.0434 110.498C90.5262 108.934 91.4516 106.837 91.4516 104.516C91.4516 102.922 90.99 101.448 90.241 100.161H121.935V121.935H95.8065C95.8065 120.407 95.5277 118.946 95.0444 117.581H108.871V113.226H92.4532C91.4777 112.139 90.3302 111.21 89.0434 110.498ZM130.645 87.0968H126.29V91.4516H130.645V130.645H92.4532C93.5833 129.387 94.4695 127.915 95.0444 126.29H126.29V95.8065H94.5958C95.3448 94.5196 95.8065 93.0455 95.8065 91.4516H121.935V87.0968H95.0683C94.3606 84.6755 92.9627 81.5335 90.2366 78.3871H128.468C129.668 78.3871 130.645 79.3626 130.645 80.5645V87.0968Z" fill="white"/>
<path d="M117.581 113.226H113.226V117.581H117.581V113.226Z" fill="white"/>
<path d="M32.6612 74.0323H28.3064V78.3871H32.6612V74.0323Z" fill="white"/>
<path d="M41.371 78.3871H37.0161V82.7419H41.371V78.3871Z" fill="white"/>
<path d="M50.0807 74.0323H45.7258V78.3871H50.0807V74.0323Z" fill="white"/>
<path d="M63.1451 80.5645H58.7903V84.9194H63.1451V80.5645Z" fill="white"/>
<path d="M74.0322 74.0323H69.6774V78.3871H74.0322V74.0323Z" fill="white"/>
<path d="M19.5968 82.7419H15.2419V87.0968H19.5968V82.7419Z" fill="white"/>
</svg>
