<svg width="97" height="120" viewBox="0 0 97 120" fill="none" xmlns="http://www.w3.org/2000/svg">
<path d="M92.3524 10.7822H86.5501L84.9384 2.96668C84.5833 1.2475 83.0517 0 81.297 0H15.703C13.9474 0 12.4158 1.2475 12.0616 2.96668L10.449 10.7822H4.64671C2.08433 10.7822 0 12.8666 0 15.4289V23.1115C0 25.6739 2.08433 27.7592 4.64671 27.7592H6.92682L8.21893 36.8386C7.82738 37.0644 7.47043 37.3531 7.16721 37.7018C6.39139 38.5969 6.04173 39.7825 6.20836 40.9563L14.8343 101.562C15.072 103.234 16.3277 104.56 17.9139 104.951L19.1414 113.58C19.6103 116.871 22.4696 119.352 25.7932 119.352H71.2068C74.5304 119.352 77.3897 116.871 77.8586 113.58L79.0861 104.951C80.6723 104.56 81.928 103.234 82.1657 101.562L90.7916 40.9563C90.9583 39.7825 90.6086 38.5969 89.8328 37.7018C89.5296 37.3531 89.1726 37.0644 88.7802 36.8386L90.0732 27.7592H92.3533C94.9157 27.7592 97 25.6739 97 23.1115V15.4289C96.9991 12.8666 94.9148 10.7822 92.3524 10.7822ZM87.3259 40.4627L78.7 101.068C78.659 101.356 78.4095 101.572 78.1199 101.572H61.3716C60.4054 101.572 59.6223 102.355 59.6223 103.322C59.6223 104.289 60.4054 105.072 61.3716 105.072H75.5339L74.3929 113.087C74.168 114.664 72.7985 115.853 71.2059 115.853H25.7932C24.2006 115.853 22.8311 114.664 22.6062 113.087L21.4661 105.072H53.2282C54.1952 105.072 54.9784 104.289 54.9784 103.322C54.9784 102.355 54.1952 101.572 53.2282 101.572H18.8791C18.5896 101.572 18.3401 101.356 18.2991 101.068L9.67314 40.4627C9.64036 40.2323 9.74507 40.0712 9.81064 39.9956C9.87347 39.9237 10.0101 39.8089 10.2231 39.798C10.2468 39.7971 10.2696 39.7953 10.2942 39.7934H86.7049C86.7286 39.7953 86.7523 39.7971 86.776 39.798C86.989 39.8089 87.1256 39.9237 87.1885 39.9956C87.254 40.0712 87.3587 40.2323 87.3259 40.4627V40.4627ZM10.4626 27.7592H86.5374L85.3227 36.2941H11.6773L10.4626 27.7592ZM93.4997 23.1115C93.4997 23.7444 92.9852 24.2589 92.3524 24.2589H4.64671C4.01477 24.2589 3.49938 23.7444 3.49938 23.1115V15.4289C3.49938 14.7961 4.01477 14.2816 4.64671 14.2816H20.306C21.2722 14.2816 22.0553 13.4985 22.0553 12.5315C22.0553 11.5653 21.2722 10.7822 20.306 10.7822H14.023L15.489 3.67421C15.51 3.57313 15.6001 3.49938 15.703 3.49938H81.297C81.3999 3.49938 81.49 3.57313 81.511 3.67421L82.977 10.7822H28.4494C27.4823 10.7822 26.6992 11.5653 26.6992 12.5315C26.6992 13.4985 27.4823 14.2816 28.4494 14.2816H92.3524C92.9852 14.2816 93.4997 14.7961 93.4997 15.4289V23.1115Z" fill="white"/>
<path d="M61.6625 56.2777C61.6507 56.2659 61.6379 56.255 61.6252 56.2431C55.8084 50.4864 45.2119 51.6811 37.9682 58.9257C34.5062 62.3868 32.2989 66.713 31.7526 71.1075C31.1853 75.664 32.4556 79.7553 35.3284 82.6282C35.3284 82.6291 35.3294 82.6291 35.3303 82.63C35.3348 82.6345 35.3394 82.6391 35.3439 82.6427C37.7679 85.0585 41.0542 86.3361 44.7557 86.3361C45.4396 86.3361 46.1389 86.2914 46.8482 86.204C51.2427 85.6577 55.5689 83.4495 59.0309 79.9884C66.2928 72.7256 67.4775 62.0927 61.6707 56.2859C61.668 56.2823 61.6652 56.2805 61.6625 56.2777V56.2777ZM35.2256 71.5391C35.6763 67.9141 37.5293 64.3136 40.4423 61.3998C43.9325 57.9095 48.3024 56.0701 52.2097 56.0701C54.0054 56.0701 55.7018 56.4608 57.1715 57.2566C54.233 59.0022 49.6701 62.436 48.2824 67.5252C47.075 71.9498 40.5242 76.8514 36.9293 79.1242C35.465 77.1128 34.8604 74.4721 35.2256 71.5391ZM56.5559 77.5134C53.6421 80.4273 50.0416 82.2794 46.4166 82.7301C43.8561 83.0489 41.5177 82.6291 39.6264 81.5437C43.235 79.1616 50.1473 73.9876 51.6588 68.4458C52.8927 63.9193 57.7698 60.8716 59.997 59.6869C63.4609 64.2981 62.0659 72.0026 56.5559 77.5134V77.5134Z" fill="white"/>
</svg>
