<svg width="18" height="21" viewBox="0 0 18 21" fill="none" xmlns="http://www.w3.org/2000/svg">
<path d="M16.2494 1.89713H15.2285L14.9449 0.521988C14.8824 0.219498 14.6129 0 14.3042 0H2.76295C2.45405 0 2.18456 0.219498 2.12224 0.521988L1.83849 1.89713H0.817589C0.366737 1.89713 0 2.26387 0 2.71472V4.06647C0 4.51733 0.366737 4.88422 0.817589 4.88422H1.21877L1.44612 6.48175C1.37723 6.52148 1.31442 6.57227 1.26107 6.63364C1.12457 6.79113 1.06304 6.99973 1.09236 7.20625L2.6101 17.8698C2.65192 18.164 2.87286 18.3973 3.15195 18.4662L3.36793 19.9844C3.45044 20.5634 3.95352 21 4.53832 21H12.5288C13.1136 21 13.6167 20.5634 13.6992 19.9844L13.9152 18.4662C14.1943 18.3973 14.4152 18.164 14.457 17.8698L15.9748 7.20625C16.0041 6.99973 15.9426 6.79113 15.8061 6.63364C15.7527 6.57227 15.6899 6.52148 15.6209 6.48175L15.8484 4.88422H16.2496C16.7004 4.88422 17.0671 4.51733 17.0671 4.06647V2.71472C17.067 2.26387 16.7003 1.89713 16.2494 1.89713ZM15.365 7.11942L13.8473 17.783C13.8401 17.8336 13.7962 17.8716 13.7452 17.8716H10.7983C10.6283 17.8716 10.4905 18.0094 10.4905 18.1795C10.4905 18.3497 10.6283 18.4875 10.7983 18.4875H13.2902L13.0894 19.8977C13.0499 20.175 12.8089 20.3843 12.5287 20.3843H4.53832C4.2581 20.3843 4.01713 20.175 3.97755 19.8977L3.77696 18.4875H9.3655C9.53565 18.4875 9.67344 18.3497 9.67344 18.1795C9.67344 18.0094 9.53565 17.8716 9.3655 17.8716H3.32179C3.27084 17.8716 3.22694 17.8336 3.21973 17.783L1.70199 7.11942C1.69622 7.07888 1.71465 7.05052 1.72618 7.03722C1.73724 7.02457 1.76127 7.00438 1.79876 7.00246C1.80293 7.0023 1.80693 7.00198 1.81126 7.00166H15.2557C15.2599 7.00198 15.2641 7.0023 15.2682 7.00246C15.3057 7.00438 15.3298 7.02457 15.3408 7.03722C15.3523 7.05052 15.3708 7.07888 15.365 7.11942ZM1.8409 4.88422H15.2263L15.0125 6.38594H2.05463L1.8409 4.88422ZM16.4513 4.06647C16.4513 4.17783 16.3608 4.26835 16.2494 4.26835H0.817589C0.706398 4.26835 0.615715 4.17783 0.615715 4.06647V2.71472C0.615715 2.60337 0.706398 2.51285 0.817589 2.51285H3.57285C3.74284 2.51285 3.88062 2.37506 3.88062 2.20491C3.88062 2.03492 3.74284 1.89713 3.57285 1.89713H2.46735L2.7253 0.646477C2.72898 0.628693 2.74484 0.615715 2.76295 0.615715H14.3042C14.3223 0.615715 14.3382 0.628693 14.3419 0.646477L14.5998 1.89713H5.00567C4.83552 1.89713 4.69773 2.03492 4.69773 2.20491C4.69773 2.37506 4.83552 2.51285 5.00567 2.51285H16.2494C16.3608 2.51285 16.4513 2.60337 16.4513 2.71472V4.06647Z" fill="#ED5107"/>
<path d="M10.8495 9.90205C10.8474 9.89997 10.8452 9.89804 10.8429 9.89596C9.81948 8.88307 7.95503 9.09327 6.68051 10.368C6.07136 10.9769 5.68299 11.7381 5.58686 12.5113C5.48705 13.3131 5.71055 14.0329 6.21604 14.5384C6.21604 14.5386 6.2162 14.5386 6.21636 14.5387C6.21716 14.5395 6.21796 14.5403 6.21876 14.541C6.64526 14.966 7.22348 15.1908 7.87476 15.1908C7.99509 15.1908 8.11813 15.183 8.24294 15.1676C9.01615 15.0715 9.77734 14.6829 10.3865 14.0739C11.6642 12.796 11.8727 10.9252 10.851 9.90349C10.8505 9.90285 10.85 9.90253 10.8495 9.90205ZM6.19793 12.5873C6.27724 11.9495 6.60328 11.316 7.11581 10.8033C7.72993 10.1892 8.49881 9.86552 9.1863 9.86552C9.50225 9.86552 9.80073 9.93425 10.0593 10.0743C9.5423 10.3814 8.73945 10.9856 8.49528 11.881C8.28284 12.6595 7.13023 13.522 6.4977 13.9219C6.24007 13.568 6.13368 13.1033 6.19793 12.5873ZM9.95101 13.6385C9.43832 14.1512 8.80482 14.477 8.167 14.5564C7.71647 14.6124 7.30503 14.5386 6.97226 14.3476C7.6072 13.9285 8.82341 13.0181 9.08937 12.043C9.30646 11.2466 10.1646 10.7103 10.5565 10.5019C11.1659 11.3132 10.9205 12.6688 9.95101 13.6385Z" fill="#ED5107"/>
</svg>
