<svg width="33" height="35" viewBox="0 0 33 35" fill="none" xmlns="http://www.w3.org/2000/svg">
<path d="M31.0929 5.03701H23.8108V3.84971C23.8108 1.72697 22.0839 0 19.9611 0H13.0388C10.9161 0 9.18913 1.72697 9.18913 3.84971V5.03701H1.90706C1.36738 5.03701 0.935638 5.46875 0.935638 6.00843C0.935638 6.54811 1.36738 6.97985 1.90706 6.97985H3.66282V29.8047C3.66282 32.6686 5.99423 35 8.85813 35H24.1418C27.0057 35 29.3372 32.6686 29.3372 29.8047V6.97985H31.0929C31.6326 6.97985 32.0643 6.54811 32.0643 6.00843C32.0643 5.46875 31.6326 5.03701 31.0929 5.03701ZM11.132 3.84971C11.132 2.79914 11.9883 1.94285 13.0388 1.94285H19.9611C21.0117 1.94285 21.868 2.79914 21.868 3.84971V5.03701H11.132V3.84971ZM27.3943 29.8047C27.3943 31.5964 25.9336 33.0572 24.1418 33.0572H8.85813C7.06639 33.0572 5.60566 31.5964 5.60566 29.8047V6.97985H27.4015V29.8047H27.3943Z" fill="#E74C3C"/>
<path d="M16.5 29.5744C17.0397 29.5744 17.4714 29.1427 17.4714 28.603V11.434C17.4714 10.8943 17.0397 10.4626 16.5 10.4626C15.9603 10.4626 15.5286 10.8943 15.5286 11.434V28.5958C15.5286 29.1355 15.9603 29.5744 16.5 29.5744Z" fill="#E74C3C"/>
<path d="M10.1606 28.5023C10.7002 28.5023 11.132 28.0705 11.132 27.5309V12.499C11.132 11.9593 10.7002 11.5276 10.1606 11.5276C9.62088 11.5276 9.18913 11.9593 9.18913 12.499V27.5309C9.18913 28.0705 9.62807 28.5023 10.1606 28.5023Z" fill="#E74C3C"/>
<path d="M22.8394 28.5023C23.3791 28.5023 23.8108 28.0705 23.8108 27.5309V12.499C23.8108 11.9593 23.3791 11.5276 22.8394 11.5276C22.2997 11.5276 21.868 11.9593 21.868 12.499V27.5309C21.868 28.0705 22.2997 28.5023 22.8394 28.5023Z" fill="#E74C3C"/>
</svg>
